<?xml version="1.0" encoding="utf-8"?>
<!-- Generator: Adobe Illustrator 17.0.0, SVG Export Plug-In . SVG Version: 6.00 Build 0)  -->
<!DOCTYPE svg PUBLIC "-//W3C//DTD SVG 1.1//EN" "http://www.w3.org/Graphics/SVG/1.1/DTD/svg11.dtd">
<svg version="1.1" id="Layer_1" xmlns="http://www.w3.org/2000/svg" xmlns:xlink="http://www.w3.org/1999/xlink" x="0px" y="0px"
	 width="1000px" height="1000px" viewBox="0 0 1000 1000" enable-background="new 0 0 1000 1000" xml:space="preserve">
<g>
	<g>
		<g>
			<path fill="#41474B" d="M365.828,523.03h-2.758l-42.237-100.005h11.029l32.515,76.641l32.222-76.641h10.885L365.828,523.03z"/>
			<path fill="#41474B" d="M428.83,436.817c0,3.628-2.903,6.531-6.531,6.531c-3.633,0-6.536-2.903-6.536-6.531
				c0-3.628,2.903-6.531,6.536-6.531C425.928,430.286,428.83,433.188,428.83,436.817z M427.23,522.016h-10.015v-65.169h10.015
				V522.016z"/>
			<path fill="#41474B" d="M482.971,471.071c-6.387-3.921-12.048-6.68-18.434-6.68c-6.68,0-11.034,3.922-11.034,8.42
				c0,5.224,4.503,7.401,20.03,15.532c3.484,1.889,11.904,6.531,11.904,16.69c0,6.531-5.224,18.29-21.481,18.29
				c-7.694,0-14.081-2.321-20.9-5.954v-10.303c10.741,6.531,17.56,7.401,21.044,7.401c5.08,0,11.034-3.191,11.034-8.708
				c0-6.238-5.954-9.289-14.518-13.35c-7.982-3.777-17.127-8.42-17.127-19.304c0-7.987,6.531-17.565,20.905-17.565
				c8.996,0,15.239,3.628,18.579,5.517V471.071z"/>
			<path fill="#41474B" d="M512.151,436.817c0,3.628-2.903,6.531-6.531,6.531c-3.633,0-6.536-2.903-6.536-6.531
				c0-3.628,2.903-6.531,6.536-6.531C509.248,430.286,512.151,433.188,512.151,436.817z M510.55,522.016h-10.015v-65.169h10.015
				V522.016z"/>
			<path fill="#41474B" d="M593.866,489.357c0,18.728-15.239,33.966-33.961,33.966c-18.728,0-33.822-15.239-33.822-33.966
				c0-18.723,15.095-33.817,33.822-33.817C578.627,455.539,593.866,470.634,593.866,489.357z M536.39,489.357
				c0,13.792,10.015,25.109,23.658,25.109s23.514-11.317,23.514-25.109c0-13.787-9.871-24.965-23.514-24.965
				S536.39,475.569,536.39,489.357z"/>
			<path fill="#41474B" d="M619.562,456.846v9.871c4.791-6.387,11.178-11.178,20.467-11.178c14.662,0,23.37,10.741,23.37,27.58
				v38.897h-10.015v-38.027c0-11.034-4.21-19.598-15.676-19.598c-3.772,0-12.048,1.163-18.146,11.466v46.158h-10.015v-65.169
				H619.562z"/>
			<path fill="#41474B" d="M782.569,523.03h-2.614l-32.803-82.297l-32.803,82.297h-2.758l-39.622-100.005h10.885l30.189,75.189
				l30.194-75.189h7.982l30.189,75.189l30.045-75.189h10.885L782.569,523.03z"/>
			<path fill="#41474B" d="M843.832,436.817c0,3.628-2.903,6.531-6.531,6.531s-6.531-2.903-6.531-6.531
				c0-3.628,2.903-6.531,6.531-6.531S843.832,433.188,843.832,436.817z M842.237,522.016h-10.015v-65.169h10.015V522.016z"/>
			<path fill="#41474B" d="M897.977,471.071c-6.387-3.921-12.048-6.68-18.435-6.68c-6.68,0-11.034,3.922-11.034,8.42
				c0,5.224,4.503,7.401,20.03,15.532c3.484,1.889,11.904,6.531,11.904,16.69c0,6.531-5.224,18.29-21.481,18.29
				c-7.694,0-14.081-2.321-20.9-5.954v-10.303c10.741,6.531,17.56,7.401,21.044,7.401c5.08,0,11.034-3.191,11.034-8.708
				c0-6.238-5.954-9.289-14.518-13.35c-7.982-3.777-17.127-8.42-17.127-19.304c0-7.987,6.531-17.565,20.905-17.565
				c8.996,0,15.239,3.628,18.579,5.517V471.071z"/>
			<path fill="#41474B" d="M970.84,490.082h-48.33c0,15.676,10.885,24.384,23.365,24.384c12.773,0,20.756-6.531,23.951-9.14v10.159
				c-4.066,2.758-11.322,7.838-25.109,7.838c-21.774,0-32.515-16.546-32.515-34.11c0-22.644,15.094-33.673,29.901-33.673
				c16.113,0,28.738,13.206,28.738,32.222V490.082z M960.537,482.826c-1.451-14.081-11.034-18.434-18.141-18.434
				c-8.131,0-16.839,5.229-19.304,18.434H960.537z"/>
		</g>
	</g>
	<g>
		<g>
			<path fill="#41474B" d="M462.957,568.895c-1.849,2.776-5.1,4.498-8.486,4.498c-6.957,0-12.004-5.337-12.004-12.688
				c0-7.351,5.047-12.688,12.004-12.688c3.355,0,6.607,1.725,8.486,4.501l0.269,0.394l4.333-2.413l-0.335-0.472
				c-2.144-3.038-6.099-6.657-12.754-6.657c-9.988,0-17.237,7.29-17.237,17.336c0,10.046,7.249,17.336,17.237,17.336
				c5.245,0,9.551-2.235,12.797-6.645l0.351-0.478l-4.397-2.421L462.957,568.895z"/>
			<path fill="#41474B" d="M520.218,543.908l-13.48,33.549h5.753l2.875-7.214h15.474l2.875,7.214h5.753l-13.531-33.549H520.218z
				 M516.946,565.595l6.155-15.558l6.111,15.558H516.946z"/>
			<path fill="#41474B" d="M594.997,543.908h-13.582v33.549h5.085v-12.919h8.496c6.304,0,10.706-4.242,10.706-10.315
				C605.704,548.15,601.302,543.908,594.997,543.908z M586.501,548.556h8.009c3.566,0,5.962,2.276,5.962,5.667
				c0,3.391-2.395,5.667-5.962,5.667h-8.009V548.556z"/>
			<rect x="649.022" y="543.908" fill="#41474B" width="5.085" height="33.549"/>
			<polygon fill="#41474B" points="697.423,548.556 707.707,548.556 707.707,577.457 712.793,577.457 712.793,548.556 
				723.126,548.556 723.126,543.908 697.423,543.908 			"/>
			<path fill="#41474B" d="M773.048,543.908l-13.48,33.549h5.751l2.878-7.214h15.474l2.875,7.214h5.753l-13.531-33.549H773.048z
				 M769.776,565.595l6.155-15.558l6.111,15.558H769.776z"/>
			<polygon fill="#41474B" points="839.331,572.809 839.331,543.908 834.246,543.908 834.246,577.457 854.439,577.457 
				854.439,572.809 			"/>
		</g>
	</g>
</g>
<g>
	<polygon fill="#A4D55D" points="164.792,577.961 118.232,520.656 197.562,423.105 290.768,423.105 	"/>
	<polygon fill="#41474B" points="100.244,501.994 46.279,501.994 28.291,520.656 73.261,577.961 118.232,520.656 	"/>
</g>
</svg>
